<?xml version="1.0" encoding="utf-8"?>
<!-- Generator: Adobe Illustrator 24.2.3, SVG Export Plug-In . SVG Version: 6.00 Build 0)  -->
<svg version="1.1" id="Layer_1" xmlns="http://www.w3.org/2000/svg" xmlns:xlink="http://www.w3.org/1999/xlink" x="0px" y="0px"
	 viewBox="0 0 1366 768" style="enable-background:new 0 0 1366 768;" xml:space="preserve">
<style type="text/css">
	.st0{fill:#048E81;}
</style>
<g>
	<path class="st0" d="M345.56,307.5v4.85h-13.2v11.46h13.2v4.85h-13.2V345h-4.85v-37.5H345.56z"/>
	<path class="st0" d="M356.39,311.95c0.67,0.66,1.01,1.46,1.01,2.41s-0.34,1.76-1.01,2.41s-1.48,0.98-2.41,0.98
		c-0.92,0-1.72-0.33-2.39-0.98s-1.01-1.46-1.01-2.41s0.34-1.76,1.01-2.41s1.47-0.98,2.39-0.98
		C354.91,310.97,355.72,311.3,356.39,311.95z M356.41,320.88V345h-4.85v-24.12H356.41z"/>
	<path class="st0" d="M368.72,327.35V345h-4.88v-24.12h4.88v2.81c1.02-2.75,3.05-4.13,6.12-4.13c2.61,0,4.68,0.93,6.22,2.78
		s2.33,4.18,2.38,6.97V345h-4.85v-15.49c0-1.39-0.51-2.58-1.52-3.57s-2.23-1.49-3.63-1.49c-1.39,0-2.59,0.48-3.61,1.45
		C369.26,326.48,368.89,326.96,368.72,327.35z"/>
	<path class="st0" d="M411.45,322.57v-1.69h4.88v24.14h-4.88V342c-2.34,2.42-5.06,3.63-8.16,3.63c-3.69,0-6.83-1.3-9.43-3.9
		s-3.9-5.75-3.9-9.43s1.3-6.83,3.9-9.43s5.75-3.9,9.43-3.9C406.38,318.96,409.1,320.16,411.45,322.57z M411.45,334.08v-3.56
		c-0.28-1.52-1.03-2.89-2.25-4.13c-1.64-1.63-3.61-2.44-5.91-2.44c-2.31,0-4.29,0.81-5.92,2.44s-2.45,3.59-2.45,5.91
		c0,2.3,0.82,4.26,2.45,5.89s3.61,2.45,5.92,2.45c2.3,0,4.27-0.81,5.91-2.44C410.41,336.97,411.16,335.59,411.45,334.08z"/>
	<path class="st0" d="M428.25,327.35V345h-4.88v-24.12h4.88v2.81c1.02-2.75,3.05-4.13,6.12-4.13c2.61,0,4.68,0.93,6.22,2.78
		s2.33,4.18,2.38,6.97V345h-4.85v-15.49c0-1.39-0.51-2.58-1.52-3.57s-2.23-1.49-3.63-1.49c-1.39,0-2.59,0.48-3.61,1.45
		C428.79,326.48,428.42,326.96,428.25,327.35z"/>
	<path class="st0" d="M469.17,336.73l4.85,1.73c-1.19,1.64-2.05,2.73-2.58,3.26c-2.61,2.61-5.76,3.91-9.45,3.91
		c-3.67,0-6.81-1.3-9.42-3.91s-3.91-5.76-3.91-9.45s1.3-6.84,3.91-9.45s5.75-3.91,9.42-3.91c3.69,0,6.84,1.3,9.45,3.91
		c0.53,0.53,1.39,1.6,2.58,3.21l-4.85,1.78c-0.63-0.77-1.05-1.26-1.27-1.48c-1.63-1.63-3.59-2.44-5.91-2.44
		c-2.3,0-4.26,0.82-5.89,2.45s-2.45,3.61-2.45,5.92c0,2.3,0.82,4.26,2.45,5.89s3.6,2.45,5.89,2.45c2.31,0,4.29-0.81,5.93-2.44
		C468.13,337.96,468.55,337.48,469.17,336.73z"/>
	<path class="st0" d="M484.88,311.95c0.67,0.66,1.01,1.46,1.01,2.41s-0.34,1.76-1.01,2.41s-1.48,0.98-2.41,0.98
		c-0.92,0-1.72-0.33-2.39-0.98s-1.01-1.46-1.01-2.41s0.34-1.76,1.01-2.41s1.47-0.98,2.39-0.98
		C483.4,310.97,484.2,311.3,484.88,311.95z M484.9,320.88V345h-4.85v-24.12H484.9z"/>
	<path class="st0" d="M513.23,322.57v-1.69h4.88v24.14h-4.88V342c-2.34,2.42-5.06,3.63-8.16,3.63c-3.69,0-6.83-1.3-9.43-3.9
		s-3.9-5.75-3.9-9.43s1.3-6.83,3.9-9.43s5.75-3.9,9.43-3.9C508.17,318.96,510.89,320.16,513.23,322.57z M513.23,334.08v-3.56
		c-0.28-1.52-1.03-2.89-2.25-4.13c-1.64-1.63-3.61-2.44-5.91-2.44c-2.31,0-4.29,0.81-5.92,2.44s-2.45,3.59-2.45,5.91
		c0,2.3,0.82,4.26,2.45,5.89s3.61,2.45,5.92,2.45c2.3,0,4.27-0.81,5.91-2.44C512.2,336.97,512.95,335.59,513.23,334.08z"/>
	<path class="st0" d="M530.04,307.48V345h-4.88v-37.52H530.04z"/>
	<path class="st0" d="M571.71,307.5v4.85h-13.2v11.46h13.2v4.85h-13.2V345h-4.85v-37.5H571.71z"/>
	<path class="st0" d="M582.16,324.14c1.81-2.45,4.04-3.74,6.68-3.87v5.04c-1.77,0.09-3.17,0.66-4.22,1.71
		c-1.58,1.56-2.4,3.42-2.46,5.58V345h-4.85v-24.12h4.85V324.14z"/>
	<path class="st0" d="M600.96,339.54c0.81,0.72,2.29,1.08,4.43,1.08c2.31,0,4.29-0.81,5.93-2.44c0.2-0.22,0.62-0.7,1.24-1.45
		l4.85,1.73c-1.19,1.64-2.05,2.73-2.58,3.26c-2.61,2.61-5.76,3.91-9.45,3.91c-3.67,0-6.81-1.3-9.42-3.91s-3.91-5.76-3.91-9.45
		s1.3-6.84,3.91-9.45s5.75-3.91,9.42-3.91c3.16,0,5.92,0.95,8.3,2.86c0.39,0.33,0.77,0.68,1.15,1.05c0.16,0.16,0.6,0.65,1.34,1.48
		l-2.44,2.46L600.96,339.54z M609.07,324.54c-0.55-0.42-1.77-0.63-3.68-0.63c-2.3,0-4.26,0.82-5.89,2.45s-2.45,3.61-2.45,5.92
		c0,1.89,0.21,3.12,0.63,3.68L609.07,324.54z"/>
	<path class="st0" d="M630.54,339.54c0.81,0.72,2.29,1.08,4.43,1.08c2.31,0,4.29-0.81,5.93-2.44c0.2-0.22,0.62-0.7,1.24-1.45
		l4.85,1.73c-1.19,1.64-2.05,2.73-2.58,3.26c-2.61,2.61-5.76,3.91-9.45,3.91c-3.67,0-6.81-1.3-9.42-3.91s-3.91-5.76-3.91-9.45
		s1.3-6.84,3.91-9.45s5.75-3.91,9.42-3.91c3.16,0,5.92,0.95,8.3,2.86c0.39,0.33,0.77,0.68,1.15,1.05c0.16,0.16,0.6,0.65,1.34,1.48
		l-2.44,2.46L630.54,339.54z M638.65,324.54c-0.55-0.42-1.77-0.63-3.68-0.63c-2.3,0-4.26,0.82-5.89,2.45s-2.45,3.61-2.45,5.92
		c0,1.89,0.21,3.12,0.63,3.68L638.65,324.54z"/>
	<path class="st0" d="M673.55,322.55V307.5h4.88V345h-4.88v-3c-2.34,2.42-5.07,3.63-8.18,3.63c-3.69,0-6.83-1.3-9.43-3.91
		s-3.9-5.76-3.9-9.45s1.3-6.84,3.9-9.45s5.75-3.91,9.43-3.91C668.48,318.91,671.2,320.13,673.55,322.55z M673.55,334.08v-3.59
		c-0.28-1.52-1.04-2.89-2.27-4.13c-1.63-1.64-3.59-2.46-5.91-2.46s-4.29,0.82-5.92,2.46s-2.45,3.61-2.45,5.91
		c0,2.31,0.82,4.28,2.45,5.91s3.61,2.44,5.92,2.44s4.28-0.81,5.91-2.44C672.51,336.95,673.27,335.58,673.55,334.08z"/>
	<path class="st0" d="M697.38,318.91c3.69,0,6.83,1.3,9.43,3.91s3.9,5.76,3.9,9.45s-1.3,6.84-3.9,9.45s-5.75,3.91-9.43,3.91
		c-3.67,0-6.81-1.3-9.42-3.91s-3.91-5.76-3.91-9.45s1.3-6.84,3.91-9.45S693.71,318.91,697.38,318.91z M691.46,326.37
		c-1.63,1.64-2.45,3.61-2.45,5.91c0,2.31,0.82,4.28,2.45,5.91s3.61,2.44,5.92,2.44s4.29-0.81,5.92-2.44s2.45-3.59,2.45-5.91
		c0-2.3-0.82-4.27-2.45-5.91s-3.61-2.46-5.92-2.46S693.1,324.73,691.46,326.37z"/>
	<path class="st0" d="M716.34,320.88h4.85v2.25c0.94-2.36,2.74-3.54,5.41-3.54c2.66,0,4.15,1.34,4.48,4.03
		c0.77-2.69,2.88-4.03,6.33-4.03c3.41,0,5.11,2.07,5.11,6.21V345h-4.88v-16.97c0-2.38-0.96-3.56-2.88-3.56
		c-0.8,0-1.48,0.28-2.06,0.84s-0.87,2.45-0.87,5.67V345h-4.85l0.02-16.97c0-2.38-0.97-3.56-2.91-3.56c-0.8,0-1.48,0.28-2.06,0.84
		c-0.5,0.48-0.78,1.77-0.84,3.84V345h-4.85V320.88z"/>
	<path class="st0" d="M779.63,307.5l13.64,37.5h-5.16l-4.83-13.27h-9.94l-4.8,13.27h-5.18L777,307.5H779.63z M781.52,326.88
		l-3.21-8.79l-3.19,8.79H781.52z"/>
	<path class="st0" d="M807.3,337.85v-16.97h4.85v16.57c0,0.86,0.29,1.57,0.87,2.14s1.27,0.86,2.06,0.86c1.92,0,2.88-1.2,2.88-3.59
		v-15.98h4.88v16.9c-0.08,2.06-0.84,3.81-2.27,5.25c-1.52,1.53-3.34,2.3-5.48,2.3c-2.16,0-3.93-0.75-5.32-2.25
		c-1.42,1.5-3.2,2.25-5.34,2.25c-2.16,0-3.99-0.77-5.51-2.3c-1.44-1.44-2.19-3.19-2.25-5.25v-16.9h4.85v15.98
		c0,2.39,0.97,3.59,2.91,3.59c0.8,0,1.48-0.28,2.06-0.84C806.97,339.13,807.24,338.54,807.3,337.85z"/>
	<path class="st0" d="M850.1,322.57v-1.69h4.88v24.14h-4.88V342c-2.34,2.42-5.06,3.63-8.16,3.63c-3.69,0-6.83-1.3-9.43-3.9
		s-3.9-5.75-3.9-9.43s1.3-6.83,3.9-9.43s5.75-3.9,9.43-3.9C845.04,318.96,847.76,320.16,850.1,322.57z M850.1,334.08v-3.56
		c-0.28-1.52-1.03-2.89-2.25-4.13c-1.64-1.63-3.61-2.44-5.91-2.44c-2.31,0-4.29,0.81-5.92,2.44s-2.45,3.59-2.45,5.91
		c0,2.3,0.82,4.26,2.45,5.89s3.61,2.45,5.92,2.45c2.3,0,4.27-0.81,5.91-2.44C849.07,336.97,849.82,335.59,850.1,334.08z"/>
	<path class="st0" d="M867.26,311.95c0.67,0.66,1.01,1.46,1.01,2.41s-0.34,1.76-1.01,2.41s-1.48,0.98-2.41,0.98
		c-0.92,0-1.72-0.33-2.39-0.98s-1.01-1.46-1.01-2.41s0.34-1.76,1.01-2.41s1.47-0.98,2.39-0.98
		C865.78,310.97,866.59,311.3,867.26,311.95z M867.28,320.88V345h-4.85v-24.12H867.28z"/>
	<path class="st0" d="M877.64,320.88v-9.05h4.85v9.05h4.34v4.85h-4.34V345h-4.85v-19.27h-4.34v-4.85H877.64z"/>
	<path class="st0" d="M897.35,339.82c0.58,0.56,1.27,0.84,2.06,0.84s1.48-0.28,2.05-0.84s0.86-1.26,0.86-2.09
		c0-0.8-0.28-1.48-0.84-2.04c-0.39-0.39-1.23-0.99-2.51-1.8c-1.75-0.95-2.99-1.8-3.73-2.53c-1.28-1.28-1.92-2.82-1.92-4.62
		c0-1.81,0.64-3.36,1.92-4.65s2.83-1.93,4.64-1.93s3.32,0.61,4.52,1.83c0.86,0.86,1.41,1.82,1.64,2.88l-4.71,1.36
		c-0.11-0.39-0.22-0.65-0.33-0.77c-0.28-0.28-0.66-0.42-1.13-0.42s-0.87,0.17-1.21,0.5s-0.5,0.74-0.5,1.21s0.16,0.87,0.49,1.2
		c0.3,0.28,0.97,0.76,2.02,1.43c1.94,1.06,3.34,2.03,4.22,2.91c1.52,1.53,2.27,3.35,2.27,5.46c0,2.16-0.75,4-2.26,5.52
		s-3.34,2.29-5.5,2.29c-2.14,0-3.97-0.77-5.48-2.3c-1.05-1.05-1.73-2.35-2.06-3.91l4.83-1.03
		C896.84,339.02,897.05,339.52,897.35,339.82z"/>
	<path class="st0" d="M942.96,337.99V307.5h4.85v30.49c0.16,0.27,0.42,0.59,0.8,0.98c1.02,0.97,2.22,1.45,3.61,1.45
		s2.59-0.5,3.61-1.49s1.52-2.18,1.52-3.57V307.5h4.88v28.05c-0.06,2.64-1.04,4.91-2.93,6.8c-1.95,1.97-4.31,2.95-7.08,2.95
		c-2.75,0-5.02-0.97-6.82-2.91c-1.81,1.94-4.09,2.91-6.84,2.91c-2.77,0-5.12-0.98-7.05-2.95c-1.91-1.88-2.88-4.14-2.93-6.8V307.5
		h4.85v27.87c0,1.39,0.51,2.58,1.52,3.57s2.22,1.49,3.61,1.49c1.41,0,2.61-0.48,3.61-1.45
		C942.55,338.59,942.82,338.26,942.96,337.99z"/>
	<path class="st0" d="M973.66,311.95c0.67,0.66,1.01,1.46,1.01,2.41s-0.34,1.76-1.01,2.41s-1.48,0.98-2.41,0.98
		c-0.92,0-1.72-0.33-2.39-0.98s-1.01-1.46-1.01-2.41s0.34-1.76,1.01-2.41s1.47-0.98,2.39-0.98
		C972.19,310.97,972.99,311.3,973.66,311.95z M973.69,320.88V345h-4.85v-24.12H973.69z"/>
	<path class="st0" d="M984.05,320.88v-9.05h4.85v9.05h4.34v4.85h-4.34V345h-4.85v-19.27h-4.34v-4.85H984.05z"/>
	<path class="st0" d="M998.88,307.5h4.88v15.98c1.36-2.61,3.33-3.91,5.91-3.91s4.64,0.93,6.18,2.78s2.33,4.18,2.38,6.97V345h-4.85
		v-15.49c0-1.39-0.39-2.58-1.18-3.57s-2.04-1.49-3.74-1.49c-2.02,0-3.58,1.08-4.69,3.23V345h-4.88V307.5z"/>
	<path class="st0" d="M1030.48,311.95c0.67,0.66,1.01,1.46,1.01,2.41s-0.34,1.76-1.01,2.41s-1.48,0.98-2.41,0.98
		c-0.92,0-1.72-0.33-2.39-0.98s-1.01-1.46-1.01-2.41s0.34-1.76,1.01-2.41s1.47-0.98,2.39-0.98
		C1029,310.97,1029.8,311.3,1030.48,311.95z M1030.5,320.88V345h-4.85v-24.12H1030.5z"/>
	<path class="st0" d="M1042.8,327.35V345h-4.88v-24.12h4.88v2.81c1.02-2.75,3.05-4.13,6.12-4.13c2.61,0,4.68,0.93,6.22,2.78
		s2.33,4.18,2.38,6.97V345h-4.85v-15.49c0-1.39-0.51-2.58-1.52-3.57s-2.23-1.49-3.63-1.49c-1.39,0-2.59,0.48-3.61,1.45
		C1043.34,326.48,1042.98,326.96,1042.8,327.35z"/>
</g>
</svg>
