<?xml version="1.0" encoding="utf-8"?>
<!-- Generator: Adobe Illustrator 24.2.3, SVG Export Plug-In . SVG Version: 6.00 Build 0)  -->
<svg version="1.1" id="Layer_1" xmlns="http://www.w3.org/2000/svg" xmlns:xlink="http://www.w3.org/1999/xlink" x="0px" y="0px"
	 viewBox="0 0 1021.1 518.1" style="enable-background:new 0 0 1021.1 518.1;" xml:space="preserve">
<style type="text/css">
	.st0{fill:#FFFFFF;}
	.st1{fill:#3B3B3D;}
	.st2{font-family:'Modern-M';}
	.st3{font-size:113.3633px;}
	.st4{enable-background:new    ;}
	.st5{fill:none;stroke:#3B3B3D;stroke-miterlimit:10;}
</style>
<path class="st0" d="M426.3,513.4c-8.8,0-17.2-3.5-23.3-9.8l-19.2-19.3l-19.1,19.4c-12.9,13.1-33.8,13.1-46.8,0.1
	c-7.4-7.5-10.8-18.1-9.4-28.5l0.8-6.1l-6,0.8c-1.5,0.3-3.1,0.3-4.6,0.3c-18.2,0-33-14.9-33-33.4c0-1.6,0.1-3.2,0.3-4.8l0.8-6.1
	l-6,0.8c-1.5,0.3-3.1,0.3-4.6,0.3c-18.2,0-33-14.9-33-33.4c0-1.6,0.1-3.2,0.3-4.8l0.8-6.1l-6,0.8c-1.6,0.3-3.1,0.3-4.6,0.3
	c-18.3,0-33-15-33-33.6c0-8.3,3.1-16.3,8.5-22.4l1.6-1.7l-0.4-2.3c-12-64.8,8.4-131.3,54.3-177.9c76.8-78,201.4-78.1,278.3-0.2
	c45.9,46.6,66.3,113.1,54.4,177.9l-0.4,2.3l1.5,1.7c12.2,13.7,11.3,34.9-2.3,47.4c-6.1,5.6-14,8.7-22.3,8.6c-1.6,0-3.1-0.1-4.6-0.3
	l-6-0.8l0.8,6.1c2.6,18.3-9.9,35.3-28,38c-1.6,0.3-3.1,0.3-4.7,0.3c-1.6,0-3.1-0.1-4.6-0.3l-6-0.8l0.8,6.1c0.2,1.6,0.3,3.1,0.3,4.7
	c0,18.5-14.7,33.5-32.9,33.5h-0.1c-1.6,0-3.1-0.1-4.6-0.3l-6-0.8l0.8,6.1c2.6,18.3-10,35.3-28.1,37.9
	C429.4,513.3,427.8,513.5,426.3,513.4L426.3,513.4z"/>
<path class="st1" d="M581.8,324.8C602.1,213.9,530,107.1,420.6,86.5S206.1,139.1,185.8,250c-4.6,24.8-4.6,50.1,0,74.8
	c-14,15.6-12.8,39.7,2.6,53.9c7,6.4,16,9.9,25.3,9.9c1.7,0,3.5-0.1,5.3-0.3c-2.9,20.9,11.3,40.2,31.9,43.2c3.5,0.5,7,0.5,10.6,0
	c-2.9,20.9,11.4,40.2,31.9,43.2c3.5,0.5,7,0.5,10.6,0c-2.9,20.9,11.5,40.2,32,43.2c11.7,1.7,23.5-2.4,31.9-10.8l15.9-16.1l15.9,16.1
	c14.7,14.9,38.6,14.9,53.2,0c8.4-8.5,12.3-20.5,10.7-32.3c20.5,2.9,39.6-11.5,42.5-32.3c0.2-1.8,0.4-3.6,0.4-5.5
	c0-1.8-0.1-3.5-0.3-5.3c20.6,2.9,39.6-11.5,42.5-32.4c0.5-3.5,0.5-7.2,0-10.7c1.7,0.3,3.5,0.3,5.2,0.3c20.8,0,37.7-17,37.7-38.1
	C591.5,341,588,331.9,581.8,324.8z M515.5,153.8c40.7,41.3,60.3,99.5,53,157.5l-111.4-113c-17-17.3-44.7-17.3-61.7,0l-30,30.4
	c-13.4,13.6-35.1,13.6-48.6,0c-4.1-4.2-4.1-11.1,0-15.3l108.7-110.2C459.6,111.1,490.8,128.6,515.5,153.8z M213.7,373.3
	c-6,0-11.7-2.4-15.9-6.6l0,0c-8.8-8.9-8.8-23.3,0-32.2l42.5-43.2c8.8-8.9,23-8.9,31.8,0s8.8,23.3,0,32.2l-42.5,43.2
	C225.4,370.9,219.7,373.3,213.7,373.3z M256.2,416.4c-12.4,0-22.4-10.2-22.4-22.8c0-6,2.4-11.8,6.5-16l42.5-43.2
	c8.9-8.8,23.2-8.6,31.8,0.5c8.4,8.8,8.4,22.9,0,31.8l-42.5,43C268,414,262.2,416.4,256.2,416.4z M298.7,459.5
	c-12.4,0-22.4-10.2-22.4-22.8c0-6,2.4-11.8,6.6-16.1l42.5-43.2l0,0c8.8-8.9,23-8.9,31.8,0s8.8,23.3,0,32.2l0,0l-42.5,43.2
	C310.5,457.1,304.7,459.6,298.7,459.5z M357.2,496c-8.9,8.8-23.2,8.6-31.8-0.5c-8.4-8.8-8.4-22.9,0-31.8l42.5-43.2
	c8.9-8.8,23.2-8.6,31.8,0.5c8.4,8.8,8.4,22.9,0,31.8L357.2,496z M448.8,479.9c0,12.6-10,22.8-22.4,22.8c-6,0-11.8-2.4-16-6.7
	l-15.9-16.1l15.9-16.1c5.7-5.8,9.4-13.4,10.6-21.5l21.2,21.5C446.5,468.1,448.8,473.9,448.8,479.9z M569.8,366.6
	c-8.8,8.8-23,8.8-31.8,0l-42.5-43.2c-3-3-7.8-3-10.8,0c-3,3-3,7.9,0,10.9l42.5,43.2c8.7,9.1,8.4,23.5-0.5,32.2
	c-8.7,8.6-22.6,8.6-31.4,0l-42.5-43.2c-3-3-7.8-3-10.8,0c-3,3-3,7.9,0,10.9l0,0l42.5,43.2c8.9,8.8,9.1,23.3,0.5,32.2
	c-8.6,9-22.9,9.2-31.8,0.5c-0.2-0.2-0.3-0.3-0.5-0.5l-42.4-43.2l0,0c-7-7.2-16.6-11.2-26.6-11.2c-1.7,0-3.5,0.1-5.2,0.3
	c2.9-20.9-11.3-40.2-31.9-43.2c-3.5-0.5-7.1-0.5-10.6,0c0.2-1.8,0.3-3.5,0.3-5.3c0-21.1-16.8-38.1-37.5-38.2c-1.8,0-3.6,0.1-5.4,0.4
	c2.9-20.9-11.5-40.2-32.1-43.2c-11.7-1.7-23.4,2.4-31.8,10.7l-30.5,31c-13.1-103.5,59.1-198,161.1-211.3c7.9-1,15.7-1.5,23.6-1.5
	s15.7,0.5,23.6,1.5L306.3,202.5c-10.1,10.2-10.1,26.8,0,37c19.4,19.5,50.6,19.5,70,0l30-30.4c11.1-11.3,29.1-11.3,40.2,0
	l123.3,125.1C578.4,343.2,578.4,357.6,569.8,366.6L569.8,366.6z"/>
<text transform="matrix(0.9855 0 0 1 604.1855 207.2397)" class="st1 st2 st3">the </text>
<text transform="matrix(0.9855 0 0 1 604.1855 343.2773)" class="st1 st2 st3">honesty</text>
<text transform="matrix(0.9855 0 0 1 604.1855 479.3125)" class="st4"><tspan x="0" y="0" class="st1 st2 st3">network</tspan><tspan x="394.7" y="0" class="st5 st2 st3">.</tspan></text>
</svg>
