<svg id="Layer_1" data-name="Layer 1" xmlns="http://www.w3.org/2000/svg" viewBox="0 0 727.61 377.1"><defs><style>.cls-1,.cls-3{fill:#fff;}.cls-2{fill:#3b3b3d;}.cls-3,.cls-4{isolation:isolate;font-size:98.25px;font-family:Modern-M, Modern M;}.cls-4,.cls-5{fill:none;}.cls-4{stroke:#3b3b3d;stroke-miterlimit:10;}</style></defs><path class="cls-1" d="M509.4,514a28.32,28.32,0,0,1-20.1-8.5l-16.5-16.7-16.4,16.8a28,28,0,0,1-40.2.1,29.48,29.48,0,0,1-8-24.7l.7-5.3-5.2.7a26,26,0,0,1-4,.3c-15.7,0-28.4-13-28.4-29a27.28,27.28,0,0,1,.3-4.1l.7-5.3-5.3.7a26,26,0,0,1-4,.3c-15.7,0-28.4-13-28.4-29a27.28,27.28,0,0,1,.3-4.1l.7-5.3-5.2.7a26.93,26.93,0,0,1-4,.3c-15.7,0-28.4-13-28.4-29.1a29.21,29.21,0,0,1,7.3-19.4l1.4-1.5-.4-2C296,293.7,313.5,236.1,353,195.8c66.1-67.6,173.3-67.7,239.4-.1a175.66,175.66,0,0,1,46.8,154.1l-.4,2,1.3,1.5a29.43,29.43,0,0,1-2,41,27.48,27.48,0,0,1-19.2,7.5,26.93,26.93,0,0,1-4-.3l-5.2-.7.7,5.3c2.2,15.9-8.5,30.6-24.1,32.9a28.28,28.28,0,0,1-4.1.3,26.93,26.93,0,0,1-4-.3l-5.2-.7.7,5.3a28.28,28.28,0,0,1,.3,4.1c0,16-12.7,29-28.3,29h-.1a26.93,26.93,0,0,1-4-.3l-5.2-.7.7,5.3c2.2,15.9-8.6,30.6-24.1,32.8a13.72,13.72,0,0,1-3.6.2Z" transform="translate(-294.01 -140.95)"/><path class="cls-2" d="M643.1,350.6C660.6,254.5,598.6,162,504.5,144S320,189.6,302.4,285.7a180.91,180.91,0,0,0,0,64.8,33.61,33.61,0,0,0,2.2,46.7,32.2,32.2,0,0,0,21.8,8.6,36.71,36.71,0,0,0,4.6-.3c-2.5,18.1,9.8,34.9,27.5,37.4a34.65,34.65,0,0,0,9.1,0c-2.5,18.1,9.8,34.9,27.5,37.4a34.65,34.65,0,0,0,9.1,0c-2.5,18.1,9.9,34.9,27.6,37.4a31.74,31.74,0,0,0,27.4-9.4l13.7-14,13.7,14a31.77,31.77,0,0,0,45.8,0,33.71,33.71,0,0,0,9.2-28,32.43,32.43,0,0,0,36.5-28,31.11,31.11,0,0,0,.1-9.3,32.53,32.53,0,0,0,36.6-28.1,36.19,36.19,0,0,0,0-9.3,34,34,0,0,0,4.5.3c17.9,0,32.4-14.8,32.4-33A34.8,34.8,0,0,0,643.1,350.6Zm-57-148.3a166,166,0,0,1,45.6,136.5l-95.8-98a37,37,0,0,0-53.1,0L457,267.2a29.1,29.1,0,0,1-41.8,0,9.42,9.42,0,0,1,0-13.2l93.6-95.5A158.79,158.79,0,0,1,586.1,202.3ZM326.5,392.6a19.3,19.3,0,0,1-13.7-5.7h0a20.11,20.11,0,0,1,0-27.9l36.6-37.4a19,19,0,0,1,27.3,0,20.11,20.11,0,0,1,0,27.9l-36.6,37.4A19.32,19.32,0,0,1,326.5,392.6ZM363,430a19.55,19.55,0,0,1-19.3-19.8,20.38,20.38,0,0,1,5.6-13.9l36.6-37.4a19,19,0,0,1,27.3.4,20.13,20.13,0,0,1,0,27.6l-36.5,37.3A19.23,19.23,0,0,1,363,430Zm36.6,37.3a19.46,19.46,0,0,1-19.3-19.7,20.26,20.26,0,0,1,5.7-14l36.6-37.4h0a19,19,0,0,1,27.3,0,20.11,20.11,0,0,1,0,27.9h0l-36.6,37.4A18.45,18.45,0,0,1,399.6,467.3ZM449.9,499a19,19,0,0,1-27.3-.4,20.13,20.13,0,0,1,0-27.6l36.6-37.4a19,19,0,0,1,27.3.4,20.13,20.13,0,0,1,0,27.6Zm78.8-14a19.61,19.61,0,0,1-19.3,19.8,19.23,19.23,0,0,1-13.7-5.8L482,485l13.7-14a33.44,33.44,0,0,0,9.1-18.6L523,471A19.83,19.83,0,0,1,528.7,485Zm104.1-98.2a19.19,19.19,0,0,1-27.3,0l-36.6-37.4a6.52,6.52,0,0,0-9.3,0,6.76,6.76,0,0,0,0,9.5l36.6,37.4a19.92,19.92,0,0,1-.4,27.9,19.19,19.19,0,0,1-27,0l-36.6-37.4a6.52,6.52,0,0,0-9.3,0,6.76,6.76,0,0,0,0,9.5h0l36.6,37.4a20,20,0,0,1,.4,27.9,19,19,0,0,1-27.3.4l-.4-.4-36.5-37.5h0a31.7,31.7,0,0,0-22.9-9.7,34,34,0,0,0-4.5.3c2.5-18.1-9.8-34.9-27.5-37.4a34.65,34.65,0,0,0-9.1,0,35.53,35.53,0,0,0,.3-4.6c0-18.3-14.5-33-32.3-33.1a23.16,23.16,0,0,0-4.6.4c2.5-18.1-9.9-34.9-27.6-37.4a31.76,31.76,0,0,0-27.3,9.3l-26.3,26.9c-11.2-89.7,50.8-171.6,138.6-183.1a159.15,159.15,0,0,1,40.6,0l-87,88.9a23,23,0,0,0,0,32.1,42.08,42.08,0,0,0,60.2,0l25.8-26.3a24,24,0,0,1,34.6,0L632.8,358.8a20.23,20.23,0,0,1,0,28Z" transform="translate(-294.01 -140.95)"/><text class="cls-3" transform="translate(368.39 107.73) scale(0.98 1)">the </text><text class="cls-4" transform="translate(368.39 107.73) scale(0.98 1)">the </text><text class="cls-3" transform="translate(368.39 225.63) scale(0.98 1)">honesty</text><text class="cls-4" transform="translate(368.39 225.63) scale(0.98 1)">honesty</text><text class="cls-3" transform="translate(368.39 343.54) scale(0.98 1)">network.</text><text class="cls-4" transform="translate(368.39 343.54) scale(0.98 1)">network.</text><polygon class="cls-5" points="368.19 182.05 681.49 182.05 681.49 182.05 368.19 182.05"/></svg>